<svg width="16" height="16" viewBox="0 0 16 16" fill="none" xmlns="http://www.w3.org/2000/svg">
<path fill-rule="evenodd" clip-rule="evenodd" d="M2.29562 1.33333C2.04051 1.33333 1.7958 1.43471 1.61532 1.61526C1.43484 1.79582 1.33339 2.04077 1.33339 2.29624V13.7033C1.33339 13.9588 1.43484 14.2037 1.61532 14.3843C1.7958 14.5648 2.04051 14.6662 2.29562 14.6662H13.6978C13.9529 14.6662 14.1977 14.5648 14.3781 14.3843C14.5586 14.2037 14.6601 13.9588 14.6601 13.7033V7.99976C14.6601 7.63157 14.9585 7.3331 15.3267 7.3331C15.6949 7.3331 15.9934 7.63157 15.9934 7.99976V13.7033C15.9934 14.3122 15.7516 14.8962 15.3211 15.3269C14.8907 15.7575 14.3067 15.9995 13.6978 15.9995H2.29562C1.68671 15.9995 1.10279 15.7575 0.672314 15.3269C0.241845 14.8962 6.10352e-05 14.3122 6.10352e-05 13.7033V2.29624C6.10352e-05 1.68733 0.241845 1.1033 0.672314 0.672654C1.10279 0.241993 1.68671 0 2.29562 0H11.2545C11.6227 0 11.9212 0.298477 11.9212 0.666667C11.9212 1.03486 11.6227 1.33333 11.2545 1.33333H2.29562Z" fill="#2D3440"/>
</svg>
